#!OML:ASF F:\VICON\USERDATA\INSTALL\rory3\rory3.ASF
:FULLY-SPECIFIED
:DEGREES
46
root 0.10092051763233853 17.508915969147605 15.335544843665481 6.718037781988743 -2.088225180925821 -6.333327234567832
lfemur -24.792312607293255 7.0241862646989315 -12.544629835815554
ltibia 102.78287175424069
lfoot -1.2324975842628612 -3.6229939570820515
ltoes -1.1931622738382366
rfemur -23.65175672162902 5.483449780836024 35.146249218050336
rtibia 67.16971608288117
rfoot -17.27364881572292 -17.420465211569518
rtoes -6.900972231774293
lowerback 14.171493870105175 0.07736826917532014 3.599128133485915
upperback -1.4337097963577894 0.767406077369785 3.7882004813557755
thorax -10.720050965523065 0.2711065319737703 2.061695853697209
lowerneck -21.332457196850065 -3.546187542781449 -1.5965578860206624
upperneck 12.45442488741226 -4.584872713380728 1.7524184657329251
head 7.5834094929763705 -2.0904740287511023 0.1836367605132822
lclavicle -1.7281696227331134e-15 1.7841108307320522e-15
lhumerus -53.913780387976125 -14.618557546242888 99.89168658077851
lradius 97.9515798968751
lwrist 35.417346445421224
lhand -24.21842978072777 2.032983714450806
lfingers 7.12502
lthumb 2.1350649953243277 31.59424968284405
rclavicle -1.7259175686893249e-15 1.786661100694169e-15
rhumerus -44.51518704533355 11.109077064598178 -93.70808160823078
rradius 110.687873547255
rwrist -11.736279379494281
rhand -16.242446117115723 39.50960519367749
rfingers 7.12502
rthumb 10.282534444190885 9.60788681937775
47
root 0.1441769243771259 17.660311870266113 16.399522694257193 6.967442746609242 -0.37383798549019864 -6.287398766498677
lfemur -29.841509269960397 5.422127305277099 -12.841235724451048
ltibia 101.30851486226041
lfoot -2.755690930909806 -2.7492948535047264
ltoes -4.383360870866522
rfemur -21.221979432994512 5.328098610362568 35.08115225333684
rtibia 66.89197038847405
rfoot -15.912353401549572 -15.697638045887523
rtoes -11.061721265186819
lowerback 13.816381520569758 0.1577109895797717 4.119488568639605
upperback -1.65340345575273 0.932878141601829 3.5429310922058277
thorax -10.65988867399547 0.3337511068211644 1.7493118423116965
lowerneck -21.238126299996054 -3.7082916636301086 -1.639651053071738
upperneck 12.423226466755452 -4.823853914445559 1.7530553172943337
head 7.563983537260509 -2.2106504080273015 0.16611909333399671
lclavicle -1.7278712848630587e-15 1.7843270449700817e-15
lhumerus -56.29863486776752 -14.508764992411718 100.18635680294105
lradius 99.456208210964
lwrist 35.58798440052885
lhand -24.29362798376267 1.8039955644890977
lfingers 7.12502
lthumb 2.0383633450258047 31.381490596528142
rclavicle -1.7258264855865823e-15 1.7867469508046005e-15
rhumerus -43.46875686128571 11.740466700692721 -93.67697520775083
rradius 111.71954304347399
rwrist -11.282889991294622
rhand -16.347105064321656 39.50712549134298
rfingers 7.12502
rthumb 10.218827882999676 9.49908253342785
48
root 0.1805474027533355 17.853499487277 17.209145797405743 7.298343507721405 -0.4605900092317211 -6.31953434222977
lfemur -33.26086275264834 5.458260407485637 -12.998446419811454
ltibia 98.06613006831265
lfoot -3.7949796954166692 -2.3069113524848364
ltoes -8.104094581195966
rfemur -18.671077520026362 6.845252274206441 35.00960871387219
rtibia 65.70969652863984
rfoot -12.990535526797016 -12.858562839049402
rtoes -15.80320304404055
lowerback 13.44382798849966 0.8288279800949848 4.408605820695477
upperback -1.936658751988484 1.8426191962426761 3.093575602354403
thorax -10.516480712331525 0.6976822057519155 0.8776701631128303
lowerneck -21.246742381974272 -3.8720807463187237 -1.6834782314941603
upperneck 12.515318040011582 -5.058352839245678 1.7515733109750864
head 7.591284093104794 -2.3288416819697515 0.15136488314603247
lclavicle -1.7288631733586409e-15 1.7836076286031895e-15
lhumerus -58.36352259286804 -13.999930314341244 100.31986903551348
lradius 100.9537218322393
lwrist 35.235211769946844
lhand -24.240885515247477 1.523561829577741
lfingers 7.12502
lthumb 2.042081340888172 31.127004246003892
rclavicle -1.7263775437391659e-15 1.786373305412493e-15
rhumerus -42.7545851350088 12.245283355148766 -93.65455263893175
rradius 112.7747640803491
rwrist -10.731539622957875
rhand -16.461071051745925 39.47892988404962
rfingers 7.12502
rthumb 10.11857163705494 9.368876379527652
49
root 0.217675785353554 18.057784895578934 18.18725574513398 7.505254825746499 0.021624404137360886 -6.31874208576917
lfemur -35.42358992144256 4.6901656457322245 -13.363802789601667
ltibia 93.04114767097386
lfoot -4.479182307355883 -2.351871598965448
ltoes -11.609251775562614
rfemur -16.47767888769781 7.560779817145397 34.77997819596373
rtibia 63.816901122754686
rfoot -8.586535291604871 -9.230558978416193
rtoes -16.548354772479122
lowerback 13.153717270857511 1.2315506105636727 4.986846171655648
upperback -2.183608152839846 2.505909152699472 2.580380650322141
thorax -10.296766843689728 0.9722132189532307 -0.058569247444832384
lowerneck -21.26902305654862 -4.019312715216608 -1.723683577905799
upperneck 12.660089386215681 -5.267913485724407 1.7563360124027425
head 7.628909129966586 -2.429935667784692 0.1424055301380332
lclavicle -1.729265897546249e-15 1.7833153740968383e-15
lhumerus -60.21623463875845 -13.122411640309258 100.23305882896311
lradius 102.2228911800083
lwrist 34.93287511201465
lhand -24.129024355692138 1.1698731881139883
lfingers 7.12502
lthumb 2.0875617650318823 30.93089593337397
rclavicle -1.7273569078666658e-15 1.7857511951228955e-15
rhumerus -42.36321172281795 12.669246187548337 -93.67405236628441
rradius 113.76184722136307
rwrist -10.084512073132082
rhand -16.552484762801903 39.47875105053909
rfingers 7.12502
rthumb 10.03072282931776 9.30848615699198
